<?xml version="1.0" encoding="utf-8"?>
<!-- Generator: Adobe Illustrator 27.1.1, SVG Export Plug-In . SVG Version: 6.00 Build 0)  -->
<svg version="1.1" id="Layer_1" xmlns="http://www.w3.org/2000/svg" xmlns:xlink="http://www.w3.org/1999/xlink" x="0px" y="0px"
	 viewBox="0 0 595.1 297.8" style="enable-background:new 0 0 595.1 297.8;" xml:space="preserve">
<style type="text/css">
	.st0{fill:#231F56;}
	.st1{fill:#CAD22C;}
</style>
<g>
	<path class="st0" d="M310.5,195.5c-6.1,0-11.1-0.5-15.1-1.5c-4-1-7.1-2.3-9.5-3.8c-2.4-1.6-4-3.2-4.9-5c-0.9-1.8-1.3-3.4-1.3-5
		c0-2.8,1.1-5.3,3.2-7.4c2.1-2.1,4.9-3.2,8.4-3.2c2.9,0,5.3,0.8,7.3,2.3c2,1.5,3.6,3.4,4.9,5.7c1.2,2.1,2.2,4.4,3.1,6.9
		c0.8,2.5,1.4,4.4,1.7,5.6c5.5,0,9.6-1.2,12.4-3.5c2.8-2.3,4.2-5.6,4.2-9.6c0-1.8-0.4-3.3-1.3-4.5c-0.9-1.2-2-2.3-3.4-3.2
		c-1.4-0.9-3.2-1.7-5.4-2.5c-2.2-0.8-4.3-1.6-6.5-2.3c-5.9-2-10.5-4.7-13.9-8.2s-5.1-7.9-5.1-13.1c0-3.1,0.7-6,2.1-8.8
		c1.4-2.7,3.7-5.3,6.7-7.6c3-2.2,6.8-4,11.4-5.3c4.6-1.3,10-2,16.1-2c3.7,0,7.1,0.2,10.2,0.7c3.1,0.4,6.1,1.2,8.8,2.4
		c2.6,1.2,4.6,2.7,6,4.5c1.4,1.9,2.1,4.1,2.1,6.8s-1,4.9-3,6.9c-2,1.9-4.6,2.9-7.9,2.9c-2.8,0-5.1-0.7-7-2.2
		c-1.9-1.5-3.4-3.2-4.5-5.2c-1.2-2-2.1-4.1-2.8-6.3c-0.7-2.2-1.2-4-1.7-5.4c-3.4,0.2-6.5,1.4-9.3,3.7c-2.8,2.3-4.2,5.1-4.2,8.4
		c0,2,0.3,3.6,1,4.8c0.7,1.2,1.5,2.1,2.7,2.9c1.3,0.9,2.8,1.7,4.8,2.4c1.9,0.8,4.3,1.6,7.1,2.6c6.6,2.3,11.5,5.1,14.9,8.4
		s5,7.5,5,12.8c0,3.5-0.8,6.8-2.4,10c-1.6,3.2-3.9,5.9-6.9,8c-3.3,2.3-7.2,4.1-11.5,5.3C322.8,194.9,317.2,195.5,310.5,195.5
		L310.5,195.5z"/>
	<path class="st0" d="M124.2,123.4c-4.4-5.1-10.9-7.7-19.6-7.7c-4,0-8.2,1-12.5,2.9s-8.8,4.9-13.4,8.9h-0.6
		c-0.6-1.4-1.3-2.8-2.2-4.1c-0.9-1.4-2-2.5-3.4-3.5c-1.6-1.2-3.5-2-5.6-2.5c-2.1-0.5-4.5-0.8-7.3-0.8c-3.3,0-6.8,0.6-10.5,1.8
		c-2.7,0.8-5.5,1.9-8.3,2.9c-0.3,0.1-0.2,0.5,0.1,0.6c2.7,0.6,4.9,1.4,6.8,2.5c2.7,1.7,4.4,3.9,5.2,6.8c0,0.1,0.1,0.1,0.1,0.2
		c0.3,1,0.4,2.2,0.4,3.4c0,1.5-0.2,3.3-0.7,5.6c-0.5,2.3-0.9,4.1-1.2,5.6l-14.9,65.5c-0.1,0.3-0.2,0.5-0.2,0.7h0
		c-0.1,0.2-0.2,0.4-0.2,0.7c-0.2,0.5-0.3,1.1-0.5,1.6c-1.1,3.2-2.5,5.9-4.2,7.8c-1.2,1.4-2.6,2.4-4.1,3c-0.2,0.1-0.1,0.2-0.1,0.2
		h42.7c0,0,0.7-0.2,0-0.5c-0.8-0.4-1.7-0.7-2.4-1.2c-3.3-2-5.2-4.9-5.8-8.5c-0.2-0.4-0.2-1.9-0.1-3.3c0-1.2,0.9-5.8,0.9-5.8
		l3.5-15.6l0,0l0.4-1.8l0,0l4.2-18.1l8.2-36.2c1.2-1.5,3.1-3,5.6-4.7c2.5-1.7,5.1-2.5,7.8-2.5c2.3,0,4.2,0.4,5.7,1.3
		c1.5,0.9,2.7,2.1,3.6,3.6c0.9,1.5,1.5,3.3,1.9,5.4c0.4,2.1,0.5,4.3,0.5,6.8c0,6-0.6,11.3-1.7,16.1c-1.1,4.8-2.7,9.4-4.9,13.7
		c-2.1,4.2-4.5,7.4-7.4,9.8c-2.9,2.4-5.9,3.6-9,3.6c-3.7,0-6.6-1.1-8.6-3.4c-0.8-0.9-1.4-2-1.9-3.1l-2,9c1.7,1,3.4,1.9,5.5,2.6
		c2.9,0.9,6.8,1.4,11.6,1.4c6.4,0,12.3-1.3,17.6-3.8s10.1-6.1,14.3-10.7c4.1-4.5,7.3-9.7,9.7-15.8c2.4-6.1,3.6-12.5,3.6-19.2
		C130.7,135.6,128.5,128.5,124.2,123.4L124.2,123.4z"/>
	<path class="st0" d="M569.5,120.6c0.4,0.3,0.7,0.5,0.7,1s-12.8,59-12.8,59c-1.9,8.8-4.6,16.1-8.1,21.8c-3.5,5.7-7.5,10.3-12.1,13.7
		c-4.4,3.2-9.2,5.6-14.3,7c-5.1,1.4-10.3,2.1-15.6,2.1c-5.8,0-10.5-0.4-14.3-1.3c-3.8-0.9-6.8-2-8.9-3.5c-1.9-1.4-3.3-2.9-4-4.5
		s-1.1-3.3-1.1-4.9c0-2.8,1-5.3,3-7.5c2-2.2,4.7-3.3,8.1-3.3c2.6,0,4.9,0.7,7,2.1c2.1,1.4,3.9,3.1,5.4,5.1c1.5,1.9,2.8,4,4,6.3
		c1.1,2.2,2,4,2.6,5.4c0.1,0.1,0.2,0.2,0.3,0.2c0.8-0.2,1.8-0.5,3-0.9c1.3-0.5,2.4-1,3.2-1.6c1.3-0.8,2.4-1.7,3.3-2.5
		c1-0.8,2.1-2.1,3.3-3.8c2.4-3.2,4.6-7.3,6.4-12.1c1.9-4.8,3.5-10.5,4.8-17.2c0,0-8.3,8-15.6,10.4c-4.7,1.6-9.7,2.9-15.2,2.9
		c-7.7,0-12.9-3.1-15.7-9.3c-1-2.1-1.3-4.5-1.3-6.8c0-1.3,0.1-2.6,0.3-3.9c0.2-1.6,0.6-3.7,1.4-6.5l5.5-19.8
		c0.7-2.3,2.1-8.8,2.1-10.5c0-4.4-1.8-7.8-5.4-10c-1.9-1.2-4.3-2-7.1-2.5c-0.3-0.1-0.3-0.5-0.1-0.6c2.9-1.1,5.7-2.1,8.4-3
		c3.6-1.1,7-1.7,10.2-1.7c8,0,13.4,2.7,16.3,8.2c1.4,2.6,1.8,5.5,1.7,8.4c-0.2,3.4-0.8,6.8-1.4,9.7c0,0,0,0,0,0l-5.3,18.9
		c-0.5,1.7-0.9,3.5-1.2,5.4c-0.3,1.9-0.4,3.3-0.4,4.2c0,2.4,0.6,4.3,1.8,5.5c1.2,1.3,3.1,1.9,5.6,1.9c2.1,0,4.8-0.8,8.1-2.5
		c3.2-1.6,6.2-3.8,8.9-6.5c0,0,0.1-0.1,0.1-0.2l7.6-35.5l0,0l0.9-4.2c0,0,0,0,0,0c1.4-4.2,4.7-10.4,13.1-12.6c0,0,0.1,0,0.1,0
		l11.9-0.5C568.7,120.5,569.3,120.5,569.5,120.6L569.5,120.6z"/>
	<path class="st1" d="M256.9,76.1c6.3,4.1,11.1,14.1,11,22.3c0.3,3-0.6,11.4-1.5,14.9c0,0-0.1,0-0.1,0c0.6-4.9-1.2-14.3-5.1-17.3
		c-4.4-3.3-8.1-2.3-14.5,1.3c0,0-7.4,4.1-13.6-1.5c-5.3-4.7-5.2-13.1-0.2-18.2C240,70.3,250,71.6,256.9,76.1L256.9,76.1z"/>
	<path class="st0" d="M399.3,180.3c-1,0.4-2.3,0.9-4.1,1.4c-2.1,0.6-3.9,0.8-5.4,0.6c-3.3-0.3-5.6-1.3-6.8-3s-1.6-4.6-1.2-8.8
		c0.2-1.7,0.6-4.1,1.4-7.4c0.7-3.2,1.5-6.1,2.3-8.6l10-32.3c0.9-2.9,1.7-6,2.3-9.5c0.6-3.5,0.9-5.9,1.1-7.3
		c0.7-6.7-0.5-12.3-3.4-16.9c-3-4.5-7.6-7.1-13.8-7.7c-3.5-0.4-7.2,0.2-11.3,1.5c-4,1.3-8.3,3-12.8,5l-0.1,0.3
		c2.4,0.4,4.5,1,6.4,1.8c3.1,1.4,5.5,3.3,6.7,6.1c1.1,2.5,2.1,6.6,2,9.4c0,0.4,0,0.7-0.1,1.1c0,0.2,0,0.4,0,0.6
		c-0.2,2.3-0.7,4.7-1.3,7.4c-0.7,2.7-1.4,5.5-2.3,8.5l-9.7,31.3c-0.9,3.3-1.6,6.3-2.2,8.9c-0.5,2.6-0.9,5.2-1.2,7.8
		c-0.7,6.6,0.6,12.1,3.6,16.8c2.3,3.5,5.6,5.9,9.9,7.1c0.1,0,0.2,0.1,0.3,0.1c0.3,0.1,0.6,0.2,1,0.2c0.9,0.2,1.9,0.4,2.9,0.5
		c1.2,0.1,2.7,0,4.3-0.1c2.7-0.1,5.6-0.6,8.5-1.5c0,0,0,0,0.1,0c0,0,0,0,0.1,0c0.1,0,0.2-0.1,0.3-0.1c1.1-0.3,2.1-0.8,3-1.3
		c2-1,3.9-2.4,5.3-4.1c2.9-3.1,4.3-6.4,4.7-7.5C399.7,180.1,399.5,180.1,399.3,180.3L399.3,180.3z"/>
	<path class="st0" d="M274.8,182.7c-0.8,0.4-2.1,0.8-3.7,1.2c-1.9,0.5-3.5,0.8-5,0.8c-3.1,0-5.3-0.5-6.6-1.5c-1.3-1-1.9-3-1.9-5.8
		c0-1.1,0.2-2.8,0.6-5c0.4-2.2,0.8-4.2,1.3-5.9l6-21.4c0.6-2,1-4.1,1.2-6.5c0.2-2.4,0.3-4,0.3-4.9c0-4.5-1.6-8.2-4.7-11
		c-3.2-2.8-7.7-4.2-13.5-4.2c-3.2,0-6.7,0.6-10.3,1.7c-2.7,0.9-5.5,1.9-8.4,3c-0.3,0.1-0.2,0.5,0.1,0.6c2.7,0.6,5.1,1.4,6.9,2.5
		c2,1.2,3.4,2.8,4.3,4.7c0.9,1.1,1.3,2.8,1.3,5.2c0,1.5-0.2,3.2-0.6,5c-0.4,1.8-0.8,3.8-1.4,5.8l-6.1,21.5c-0.5,2.3-0.9,4.3-1.2,6.1
		c-0.3,1.8-0.4,3.5-0.4,5.3c0,4.4,1.6,8.1,4.9,10.9c1.9,1.7,4.3,2.8,7.1,3.5c0.1,0,0.1,0,0.2,0.1c4.4,1.4,19.8,1.5,26.2-6.7
		c0,0,0,0,0-0.1c1.9-2,3-4,3.4-4.7C275.1,182.6,274.9,182.6,274.8,182.7L274.8,182.7z"/>
	<path class="st0" d="M222.2,187.5c2.2-2.3,3.1-4.5,3.3-5.1c0-0.1,0-0.1-0.1-0.1c-0.8,0.3-2.1,0.7-3.9,1.2c-1.9,0.5-3.5,0.8-4.9,0.8
		c-3.1,0-5.2-0.5-6.5-1.6c-1.3-1-1.9-2.9-1.9-5.7c0-1.2,0.2-2.9,0.7-5.1c0.4-2.2,0.8-4.1,1.2-5.6l10.6-44.4c0,0,0.4-1.5-1-1.2
		c-1.5,0.3-22.1,4.5-22.1,4.5c-2.1-1.7-4.7-3.1-8-4.1c-3.1-1-6.7-1.5-10.9-1.5c-5.7-0.1-11.3,1.1-16.6,3.4
		c-5.7,2.6-10.7,6.1-14.9,10.7c-3.9,4.4-7.1,9.4-9.5,15.2s-3.5,11.9-3.5,18.5c0,8.6,2.1,15.3,6.3,20.2c4.2,4.9,10.5,7.4,18.9,7.4
		c2.7,0,5.2-0.4,7.4-1c2.2-0.7,4.4-1.6,6.4-2.6c2.3-1.2,4.2-2.4,5.7-3.6c0.8-0.6,1.6-1.3,2.4-2c0.1-0.1,0.1-0.2,0.1-0.3
		c-0.4-0.8-0.8-2-1-3.3c-0.1-0.6-0.2-1.1-0.2-1.6c0-0.1-0.1-0.1-0.2-0.1c-0.7,0.6-1.4,1.1-2.2,1.6c-2.1,1.3-4.3,2-6.5,2
		s-4.1-0.4-5.5-1.2c-1.5-0.8-2.6-2-3.5-3.5c-0.8-1.4-1.4-3.1-1.8-5.1c-0.4-2-0.5-4.2-0.5-6.6c0-5.2,0.6-10.3,1.7-15.2
		c1.2-5,2.7-9.3,4.8-13.1c2.1-3.8,4.4-6.8,7.1-9.1c2.7-2.3,5.6-3.4,8.8-3.4c2.1,0,3.8,0.3,5.2,1c1.4,0.7,2.5,1.6,3.4,2.9
		c0.7,1,1.2,2.2,1.5,3.7c0.3,1.4,0.4,2.7,0.4,3.7c0,0-8.5,35.5-8.9,37.8c-0.8,4.8,0.3,8,0.3,8c1.2,3.1,3.2,5.6,6.2,7.5
		c1.5,1,3.3,1.7,5.3,2.2c0,0,0,0,0.1,0c1.3,0.4,3.6,0.7,6.3,0.7c0.1,0,0.1,0,0.2,0c0.1,0,0.1,0,0.2,0c0.4,0,0.7,0,1.1,0
		c0,0,0.1,0,0.1,0C210.3,194.3,218.1,192.6,222.2,187.5L222.2,187.5z"/>
	<path class="st0" d="M470.9,171.3c0-0.3-0.4-0.3-0.5-0.1c-3.5,4.5-7.2,7.8-11,10c-4,2.2-8.9,3.3-14.6,3.3c-3.3,0-6-0.6-8.1-1.9
		s-3.8-3-4.9-5.2c-1-1.9-1.7-4.2-2.2-6.8c-0.5-2.6-0.8-4.9-0.9-7c-3.9,0.5-10.7,0.6-13.9,0.1c-0.1,0,0-0.1,0-0.1
		c3.8,0,13.6-3,14.3-7.9c3.3-20.3,9.2-25.9,9.4-26.2c2.3-2.8,4.8-4.2,7.3-4.2c2.3,0,4.1,0.8,5.5,2.4l0,0c0.3,0.3,0.5,0.6,0.7,0.9
		c0.9,1.3,1.5,2.9,1.8,4.8c1.3,5.1,0.4,10.6-1.7,15.2c-3.2,6.8-12.1,12.9-20.3,14.5c0,0,0,0,0.1,0c4-0.5,7.5-1,10.5-1.5
		c3.8-0.7,8.3-1.8,13.6-3.4c6.7-1.8,12-4.7,16-8.5c3.9-3.8,5.9-8.3,5.9-13.6c0-4.2-1.3-7.6-3.9-10.2c-0.1-0.1-0.1-0.1-0.2-0.2
		c-0.4-0.4-0.7-0.7-1.2-1c-0.5-0.4-1-0.7-1.5-1.1c-3.4-2.1-8-3.4-13.7-3.9c-1.9-0.2-3.9-0.3-6.1-0.3c-1,0-1.9,0-2.9,0.1
		c-0.1,0-0.3,0-0.4,0c-0.8,0.1-1.7,0.1-2.5,0.2c-0.1,0-0.1,0-0.2,0c-5.1,0.5-9.8,1.7-14.2,3.5c-0.2,0.1-0.4,0.2-0.7,0.3l0,0l0,0
		c-2.2,1-4.2,2-6.1,3.1c0,0,0,0-0.1,0c-0.6,0.4-1.2,0.8-1.8,1.1c-0.1,0-0.1,0.1-0.2,0.1c-0.5,0.4-1.1,0.7-1.6,1.1
		c-0.1,0.1-0.3,0.2-0.4,0.3c-0.4,0.3-0.9,0.7-1.3,1c-0.2,0.2-0.5,0.4-0.7,0.6c-0.3,0.3-0.6,0.5-0.9,0.8c-0.5,0.5-1,1-1.5,1.5
		c-0.7,0.7-1.3,1.4-2,2.1c-0.1,0.1-0.2,0.3-0.3,0.4c-0.6,0.7-1.2,1.4-1.7,2.2l0,0l0,0c-2.3,3-4.1,6.3-5.5,9.8
		c-2.1,5.4-3.2,10.9-3.2,16.6c0,4.5,0.7,8.6,2.1,12.3c1.4,3.7,3.5,7,6.3,9.8c2.9,2.8,6.5,5,10.9,6.6c4.4,1.6,9.5,2.4,15.3,2.4
		c7.5,0,14.7-1.9,21.4-5.6c5.6-3.1,10.3-7,14.3-11.8c0.1-0.1,0.1-0.3,0-0.4C472.2,176,471.3,173.8,470.9,171.3L470.9,171.3z"/>
</g>
</svg>
